<?xml version="1.0" encoding="UTF-8" standalone="no"?><!DOCTYPE svg PUBLIC "-//W3C//DTD SVG 1.1//EN" "http://www.w3.org/Graphics/SVG/1.1/DTD/svg11.dtd"><svg width="100%" height="100%" viewBox="0 0 1024 419" version="1.1" xmlns="http://www.w3.org/2000/svg" xmlns:xlink="http://www.w3.org/1999/xlink" xml:space="preserve" xmlns:serif="http://www.serif.com/" style="fill-rule:evenodd;clip-rule:evenodd;stroke-linecap:round;stroke-miterlimit:3.9643;"><rect id="rect4322" x="0" y="0.72" width="1023.96" height="417.06" style="fill:#fff;stroke:#bababa;stroke-width:1.29px;"/><g id="Keys"><path id="rect5898" d="M86.136,25.74c0,-1.391 -1.128,-2.52 -2.519,-2.52l-57.877,0c-1.391,0 -2.52,1.129 -2.52,2.52l0,29.52c0,1.391 1.129,2.52 2.52,2.52l57.877,0c1.391,0 2.519,-1.129 2.519,-2.52l0,-29.52Z" style="fill:none;stroke:#bababa;stroke-width:1.59px;stroke-miterlimit:4;"/><path id="rect5900" d="M156.163,25.74c0,-1.391 -1.129,-2.52 -2.52,-2.52l-57.876,0c-1.391,0 -2.52,1.129 -2.52,2.52l0,29.52c0,1.391 1.129,2.52 2.52,2.52l57.876,0c1.391,0 2.52,-1.129 2.52,-2.52l0,-29.52Z" style="fill:none;stroke:#bababa;stroke-width:1.59px;stroke-miterlimit:4;"/><path id="rect5902" d="M226.19,25.74c0,-1.391 -1.129,-2.52 -2.52,-2.52l-57.877,0c-1.391,0 -2.519,1.129 -2.519,2.52l0,29.52c0,1.391 1.128,2.52 2.519,2.52l57.877,0c1.391,0 2.52,-1.129 2.52,-2.52l0,-29.52Z" style="fill:none;stroke:#bababa;stroke-width:1.59px;stroke-miterlimit:4;"/><path id="rect5904" d="M296.217,25.74c0,-1.391 -1.129,-2.52 -2.52,-2.52l-57.877,0c-1.391,0 -2.52,1.129 -2.52,2.52l0,29.52c0,1.391 1.129,2.52 2.52,2.52l57.877,0c1.391,0 2.52,-1.129 2.52,-2.52l0,-29.52Z" style="fill:none;stroke:#bababa;stroke-width:1.59px;stroke-miterlimit:4;"/><path id="rect5906" d="M366.244,25.74c0,-1.391 -1.129,-2.52 -2.52,-2.52l-57.877,0c-1.391,0 -2.52,1.129 -2.52,2.52l0,29.52c0,1.391 1.129,2.52 2.52,2.52l57.877,0c1.391,0 2.52,-1.129 2.52,-2.52l0,-29.52Z" style="fill:none;stroke:#bababa;stroke-width:1.59px;stroke-miterlimit:4;"/><path id="rect5908" d="M436.271,25.74c0,-1.391 -1.129,-2.52 -2.52,-2.52l-57.877,0c-1.391,0 -2.52,1.129 -2.52,2.52l0,29.52c0,1.391 1.129,2.52 2.52,2.52l57.877,0c1.391,0 2.52,-1.129 2.52,-2.52l0,-29.52Z" style="fill:none;stroke:#bababa;stroke-width:1.59px;stroke-miterlimit:4;"/><path id="rect5910" d="M506.297,25.74c0,-1.391 -1.128,-2.52 -2.519,-2.52l-57.877,0c-1.391,0 -2.52,1.129 -2.52,2.52l0,29.52c0,1.391 1.129,2.52 2.52,2.52l57.877,0c1.391,0 2.519,-1.129 2.519,-2.52l0,-29.52Z" style="fill:none;stroke:#bababa;stroke-width:1.59px;stroke-miterlimit:4;"/><path id="rect5912" d="M576.324,25.74c0,-1.391 -1.129,-2.52 -2.519,-2.52l-57.877,0c-1.391,0 -2.52,1.129 -2.52,2.52l0,29.52c0,1.391 1.129,2.52 2.52,2.52l57.877,0c1.39,0 2.519,-1.129 2.519,-2.52l0,-29.52Z" style="fill:none;stroke:#bababa;stroke-width:1.59px;stroke-miterlimit:4;"/><path id="rect5914" d="M646.351,25.74c0,-1.391 -1.129,-2.52 -2.52,-2.52l-57.877,0c-1.391,0 -2.519,1.129 -2.519,2.52l0,29.52c0,1.391 1.128,2.52 2.519,2.52l57.877,0c1.391,0 2.52,-1.129 2.52,-2.52l0,-29.52Z" style="fill:none;stroke:#bababa;stroke-width:1.59px;stroke-miterlimit:4;"/><path id="rect5916" d="M716.378,25.74c0,-1.391 -1.129,-2.52 -2.52,-2.52l-57.877,0c-1.391,0 -2.519,1.129 -2.519,2.52l0,29.52c0,1.391 1.128,2.52 2.519,2.52l57.877,0c1.391,0 2.52,-1.129 2.52,-2.52l0,-29.52Z" style="fill:none;stroke:#bababa;stroke-width:1.59px;stroke-miterlimit:4;"/><path id="rect5918" d="M786.405,25.74c0,-1.391 -1.129,-2.52 -2.52,-2.52l-57.877,0c-1.391,0 -2.52,1.129 -2.52,2.52l0,29.52c0,1.391 1.129,2.52 2.52,2.52l57.877,0c1.391,0 2.52,-1.129 2.52,-2.52l0,-29.52Z" style="fill:none;stroke:#bababa;stroke-width:1.59px;stroke-miterlimit:4;"/><path id="rect5920" d="M856.432,25.74c0,-1.391 -1.129,-2.52 -2.52,-2.52l-57.877,0c-1.391,0 -2.52,1.129 -2.52,2.52l0,29.52c0,1.391 1.129,2.52 2.52,2.52l57.877,0c1.391,0 2.52,-1.129 2.52,-2.52l0,-29.52Z" style="fill:none;stroke:#bababa;stroke-width:1.59px;stroke-miterlimit:4;"/><path id="rect5922" d="M926.458,25.74c0,-1.391 -1.128,-2.52 -2.519,-2.52l-57.877,0c-1.391,0 -2.52,1.129 -2.52,2.52l0,29.52c0,1.391 1.129,2.52 2.52,2.52l57.877,0c1.391,0 2.519,-1.129 2.519,-2.52l0,-29.52Z" style="fill:none;stroke:#bababa;stroke-width:1.59px;stroke-miterlimit:4;"/><path id="rect5934" d="M66.78,66.6c0,-1.391 -1.129,-2.52 -2.52,-2.52l-38.52,0c-1.391,0 -2.52,1.129 -2.52,2.52l0,56.16c0,1.391 1.129,2.52 2.52,2.52l38.52,0c1.391,0 2.52,-1.129 2.52,-2.52l0,-56.16Z" style="fill:none;stroke:#bababa;stroke-width:1.44px;stroke-miterlimit:4;"/><path id="rect5946" d="M134.28,66.6c0,-1.391 -1.129,-2.52 -2.52,-2.52l-56.16,0c-1.391,0 -2.52,1.129 -2.52,2.52l0,56.16c0,1.391 1.129,2.52 2.52,2.52l56.16,0c1.391,0 2.52,-1.129 2.52,-2.52l0,-56.16Z" style="fill:none;stroke:#bababa;stroke-width:1.44px;stroke-miterlimit:4;"/><path id="rect5948" d="M201.78,66.6c0,-1.391 -1.129,-2.52 -2.52,-2.52l-56.16,0c-1.391,0 -2.52,1.129 -2.52,2.52l0,56.16c0,1.391 1.129,2.52 2.52,2.52l56.16,0c1.391,0 2.52,-1.129 2.52,-2.52l0,-56.16Z" style="fill:none;stroke:#bababa;stroke-width:1.44px;stroke-miterlimit:4;"/><path id="rect5950" d="M269.28,66.6c0,-1.391 -1.129,-2.52 -2.52,-2.52l-56.16,0c-1.391,0 -2.52,1.129 -2.52,2.52l0,56.16c0,1.391 1.129,2.52 2.52,2.52l56.16,0c1.391,0 2.52,-1.129 2.52,-2.52l0,-56.16Z" style="fill:none;stroke:#bababa;stroke-width:1.44px;stroke-miterlimit:4;"/><path id="rect5952" d="M336.78,66.6c0,-1.391 -1.129,-2.52 -2.52,-2.52l-56.16,0c-1.391,0 -2.52,1.129 -2.52,2.52l0,56.16c0,1.391 1.129,2.52 2.52,2.52l56.16,0c1.391,0 2.52,-1.129 2.52,-2.52l0,-56.16Z" style="fill:none;stroke:#bababa;stroke-width:1.44px;stroke-miterlimit:4;"/><path id="rect5954" d="M404.28,66.6c0,-1.391 -1.129,-2.52 -2.52,-2.52l-56.16,0c-1.391,0 -2.52,1.129 -2.52,2.52l0,56.16c0,1.391 1.129,2.52 2.52,2.52l56.16,0c1.391,0 2.52,-1.129 2.52,-2.52l0,-56.16Z" style="fill:none;stroke:#bababa;stroke-width:1.44px;stroke-miterlimit:4;"/><path id="rect5956" d="M471.78,66.6c0,-1.391 -1.129,-2.52 -2.52,-2.52l-56.16,0c-1.391,0 -2.52,1.129 -2.52,2.52l0,56.16c0,1.391 1.129,2.52 2.52,2.52l56.16,0c1.391,0 2.52,-1.129 2.52,-2.52l0,-56.16Z" style="fill:none;stroke:#bababa;stroke-width:1.44px;stroke-miterlimit:4;"/><path id="rect5958" d="M539.28,66.6c0,-1.391 -1.129,-2.52 -2.52,-2.52l-56.16,0c-1.391,0 -2.52,1.129 -2.52,2.52l0,56.16c0,1.391 1.129,2.52 2.52,2.52l56.16,0c1.391,0 2.52,-1.129 2.52,-2.52l0,-56.16Z" style="fill:none;stroke:#bababa;stroke-width:1.44px;stroke-miterlimit:4;"/><path id="rect5960" d="M606.78,66.6c0,-1.391 -1.129,-2.52 -2.52,-2.52l-56.16,0c-1.391,0 -2.52,1.129 -2.52,2.52l0,56.16c0,1.391 1.129,2.52 2.52,2.52l56.16,0c1.391,0 2.52,-1.129 2.52,-2.52l0,-56.16Z" style="fill:none;stroke:#bababa;stroke-width:1.44px;stroke-miterlimit:4;"/><path id="rect5962" d="M674.28,66.6c0,-1.391 -1.129,-2.52 -2.52,-2.52l-56.16,0c-1.391,0 -2.52,1.129 -2.52,2.52l0,56.16c0,1.391 1.129,2.52 2.52,2.52l56.16,0c1.391,0 2.52,-1.129 2.52,-2.52l0,-56.16Z" style="fill:none;stroke:#bababa;stroke-width:1.44px;stroke-miterlimit:4;"/><path id="rect5964" d="M741.78,66.6c0,-1.391 -1.129,-2.52 -2.52,-2.52l-56.16,0c-1.391,0 -2.52,1.129 -2.52,2.52l0,56.16c0,1.391 1.129,2.52 2.52,2.52l56.16,0c1.391,0 2.52,-1.129 2.52,-2.52l0,-56.16Z" style="fill:none;stroke:#bababa;stroke-width:1.44px;stroke-miterlimit:4;"/><path id="rect5966" d="M809.28,66.6c0,-1.391 -1.129,-2.52 -2.52,-2.52l-56.16,0c-1.391,0 -2.52,1.129 -2.52,2.52l0,56.16c0,1.391 1.129,2.52 2.52,2.52l56.16,0c1.391,0 2.52,-1.129 2.52,-2.52l0,-56.16Z" style="fill:none;stroke:#bababa;stroke-width:1.44px;stroke-miterlimit:4;"/><path id="rect5968" d="M876.78,66.6c0,-1.391 -1.129,-2.52 -2.52,-2.52l-56.16,0c-1.391,0 -2.52,1.129 -2.52,2.52l0,56.16c0,1.391 1.129,2.52 2.52,2.52l56.16,0c1.391,0 2.52,-1.129 2.52,-2.52l0,-56.16Z" style="fill:none;stroke:#bababa;stroke-width:1.44px;stroke-miterlimit:4;"/><path id="rect5970" d="M996.616,66.6c0,-1.391 -1.126,-2.52 -2.521,-2.52l-107.224,0c-1.391,0 -2.52,1.129 -2.52,2.52l0,56.16c0,1.391 1.129,2.52 2.52,2.52l107.224,0c1.395,0 2.521,-1.129 2.521,-2.52l0,-56.16Z" style="fill:none;stroke:#bababa;stroke-width:1.35px;stroke-miterlimit:4;"/><path id="rect5972" d="M101.52,134.1c0,-1.391 -1.129,-2.52 -2.52,-2.52l-73.26,0c-1.391,0 -2.52,1.129 -2.52,2.52l0,56.16c0,1.391 1.129,2.52 2.52,2.52l73.26,0c1.391,0 2.52,-1.129 2.52,-2.52l0,-56.16Z" style="fill:none;stroke:#bababa;stroke-width:1.44px;stroke-miterlimit:4;"/><path id="rect4342" d="M169.02,134.1c0,-1.391 -1.129,-2.52 -2.52,-2.52l-56.16,0c-1.391,0 -2.52,1.129 -2.52,2.52l0,56.16c0,1.391 1.129,2.52 2.52,2.52l56.16,0c1.391,0 2.52,-1.129 2.52,-2.52l0,-56.16Z" style="fill:none;stroke:#bababa;stroke-width:1.44px;stroke-miterlimit:4;"/><path id="rect4344" d="M236.52,134.1c0,-1.391 -1.129,-2.52 -2.52,-2.52l-56.16,0c-1.391,0 -2.52,1.129 -2.52,2.52l0,56.16c0,1.391 1.129,2.52 2.52,2.52l56.16,0c1.391,0 2.52,-1.129 2.52,-2.52l0,-56.16Z" style="fill:none;stroke:#bababa;stroke-width:1.44px;stroke-miterlimit:4;"/><path id="rect4346" d="M304.02,134.1c0,-1.391 -1.129,-2.52 -2.52,-2.52l-56.16,0c-1.391,0 -2.52,1.129 -2.52,2.52l0,56.16c0,1.391 1.129,2.52 2.52,2.52l56.16,0c1.391,0 2.52,-1.129 2.52,-2.52l0,-56.16Z" style="fill:none;stroke:#bababa;stroke-width:1.44px;stroke-miterlimit:4;"/><path id="rect4348" d="M371.52,134.1c0,-1.391 -1.129,-2.52 -2.52,-2.52l-56.16,0c-1.391,0 -2.52,1.129 -2.52,2.52l0,56.16c0,1.391 1.129,2.52 2.52,2.52l56.16,0c1.391,0 2.52,-1.129 2.52,-2.52l0,-56.16Z" style="fill:none;stroke:#bababa;stroke-width:1.44px;stroke-miterlimit:4;"/><path id="rect4350" d="M439.02,134.1c0,-1.391 -1.129,-2.52 -2.52,-2.52l-56.16,0c-1.391,0 -2.52,1.129 -2.52,2.52l0,56.16c0,1.391 1.129,2.52 2.52,2.52l56.16,0c1.391,0 2.52,-1.129 2.52,-2.52l0,-56.16Z" style="fill:none;stroke:#bababa;stroke-width:1.44px;stroke-miterlimit:4;"/><path id="rect4352" d="M506.52,134.1c0,-1.391 -1.129,-2.52 -2.52,-2.52l-56.16,0c-1.391,0 -2.52,1.129 -2.52,2.52l0,56.16c0,1.391 1.129,2.52 2.52,2.52l56.16,0c1.391,0 2.52,-1.129 2.52,-2.52l0,-56.16Z" style="fill:none;stroke:#bababa;stroke-width:1.44px;stroke-miterlimit:4;"/><path id="rect4354" d="M574.02,134.1c0,-1.391 -1.129,-2.52 -2.52,-2.52l-56.16,0c-1.391,0 -2.52,1.129 -2.52,2.52l0,56.16c0,1.391 1.129,2.52 2.52,2.52l56.16,0c1.391,0 2.52,-1.129 2.52,-2.52l0,-56.16Z" style="fill:none;stroke:#bababa;stroke-width:1.44px;stroke-miterlimit:4;"/><path id="rect4356" d="M641.52,134.1c0,-1.391 -1.129,-2.52 -2.52,-2.52l-56.16,0c-1.391,0 -2.52,1.129 -2.52,2.52l0,56.16c0,1.391 1.129,2.52 2.52,2.52l56.16,0c1.391,0 2.52,-1.129 2.52,-2.52l0,-56.16Z" style="fill:none;stroke:#bababa;stroke-width:1.44px;stroke-miterlimit:4;"/><path id="rect4358" d="M709.02,134.1c0,-1.391 -1.129,-2.52 -2.52,-2.52l-56.16,0c-1.391,0 -2.52,1.129 -2.52,2.52l0,56.16c0,1.391 1.129,2.52 2.52,2.52l56.16,0c1.391,0 2.52,-1.129 2.52,-2.52l0,-56.16Z" style="fill:none;stroke:#bababa;stroke-width:1.44px;stroke-miterlimit:4;"/><path id="rect4360" d="M776.52,134.1c0,-1.391 -1.129,-2.52 -2.52,-2.52l-56.16,0c-1.391,0 -2.52,1.129 -2.52,2.52l0,56.16c0,1.391 1.129,2.52 2.52,2.52l56.16,0c1.391,0 2.52,-1.129 2.52,-2.52l0,-56.16Z" style="fill:none;stroke:#bababa;stroke-width:1.44px;stroke-miterlimit:4;"/><path id="rect4362" d="M844.02,134.1c0,-1.391 -1.129,-2.52 -2.52,-2.52l-56.16,0c-1.391,0 -2.52,1.129 -2.52,2.52l0,56.16c0,1.391 1.129,2.52 2.52,2.52l56.16,0c1.391,0 2.52,-1.129 2.52,-2.52l0,-56.16Z" style="fill:none;stroke:#bababa;stroke-width:1.44px;stroke-miterlimit:4;"/><path id="rect4364" d="M911.52,134.1c0,-1.391 -1.129,-2.52 -2.52,-2.52l-56.16,0c-1.391,0 -2.52,1.129 -2.52,2.52l0,56.16c0,1.391 1.129,2.52 2.52,2.52l56.16,0c1.391,0 2.52,-1.129 2.52,-2.52l0,-56.16Z" style="fill:none;stroke:#bababa;stroke-width:1.44px;stroke-miterlimit:4;"/><path id="rect4366" d="M996.271,134.1c0,-1.391 -1.125,-2.52 -2.517,-2.52l-73.263,0c-1.391,0 -2.52,1.129 -2.52,2.52l0,56.16c0,1.391 1.129,2.52 2.52,2.52l73.263,0c1.392,0 2.517,-1.129 2.517,-2.52l0,-56.16Z" style="fill:none;stroke:#bababa;stroke-width:1.33px;stroke-miterlimit:4;"/><path id="rect4368" d="M118.17,201.6c0,-1.391 -1.129,-2.52 -2.52,-2.52l-89.91,0c-1.391,0 -2.52,1.129 -2.52,2.52l0,56.16c0,1.391 1.129,2.52 2.52,2.52l89.91,0c1.391,0 2.52,-1.129 2.52,-2.52l0,-56.16Z" style="fill:none;stroke:#bababa;stroke-width:1.44px;stroke-miterlimit:4;"/><path id="rect4370" d="M185.67,201.6c0,-1.391 -1.129,-2.52 -2.52,-2.52l-56.16,0c-1.391,0 -2.52,1.129 -2.52,2.52l0,56.16c0,1.391 1.129,2.52 2.52,2.52l56.16,0c1.391,0 2.52,-1.129 2.52,-2.52l0,-56.16Z" style="fill:none;stroke:#bababa;stroke-width:1.44px;stroke-miterlimit:4;"/><path id="rect4372" d="M253.17,201.6c0,-1.391 -1.129,-2.52 -2.52,-2.52l-56.16,0c-1.391,0 -2.52,1.129 -2.52,2.52l0,56.16c0,1.391 1.129,2.52 2.52,2.52l56.16,0c1.391,0 2.52,-1.129 2.52,-2.52l0,-56.16Z" style="fill:none;stroke:#bababa;stroke-width:1.44px;stroke-miterlimit:4;"/><path id="rect4374" d="M320.67,201.6c0,-1.391 -1.129,-2.52 -2.52,-2.52l-56.16,0c-1.391,0 -2.52,1.129 -2.52,2.52l0,56.16c0,1.391 1.129,2.52 2.52,2.52l56.16,0c1.391,0 2.52,-1.129 2.52,-2.52l0,-56.16Z" style="fill:none;stroke:#bababa;stroke-width:1.44px;stroke-miterlimit:4;"/><path id="rect4376" d="M388.17,201.6c0,-1.391 -1.129,-2.52 -2.52,-2.52l-56.16,0c-1.391,0 -2.52,1.129 -2.52,2.52l0,56.16c0,1.391 1.129,2.52 2.52,2.52l56.16,0c1.391,0 2.52,-1.129 2.52,-2.52l0,-56.16Z" style="fill:none;stroke:#bababa;stroke-width:1.44px;stroke-miterlimit:4;"/><path id="rect4378" d="M455.67,201.6c0,-1.391 -1.129,-2.52 -2.52,-2.52l-56.16,0c-1.391,0 -2.52,1.129 -2.52,2.52l0,56.16c0,1.391 1.129,2.52 2.52,2.52l56.16,0c1.391,0 2.52,-1.129 2.52,-2.52l0,-56.16Z" style="fill:none;stroke:#bababa;stroke-width:1.44px;stroke-miterlimit:4;"/><path id="rect4380" d="M523.17,201.6c0,-1.391 -1.129,-2.52 -2.52,-2.52l-56.16,0c-1.391,0 -2.52,1.129 -2.52,2.52l0,56.16c0,1.391 1.129,2.52 2.52,2.52l56.16,0c1.391,0 2.52,-1.129 2.52,-2.52l0,-56.16Z" style="fill:none;stroke:#bababa;stroke-width:1.44px;stroke-miterlimit:4;"/><path id="rect4382" d="M590.67,201.6c0,-1.391 -1.129,-2.52 -2.52,-2.52l-56.16,0c-1.391,0 -2.52,1.129 -2.52,2.52l0,56.16c0,1.391 1.129,2.52 2.52,2.52l56.16,0c1.391,0 2.52,-1.129 2.52,-2.52l0,-56.16Z" style="fill:none;stroke:#bababa;stroke-width:1.44px;stroke-miterlimit:4;"/><path id="rect4384" d="M658.17,201.6c0,-1.391 -1.129,-2.52 -2.52,-2.52l-56.16,0c-1.391,0 -2.52,1.129 -2.52,2.52l0,56.16c0,1.391 1.129,2.52 2.52,2.52l56.16,0c1.391,0 2.52,-1.129 2.52,-2.52l0,-56.16Z" style="fill:none;stroke:#bababa;stroke-width:1.44px;stroke-miterlimit:4;"/><path id="rect4386" d="M725.67,201.6c0,-1.391 -1.129,-2.52 -2.52,-2.52l-56.16,0c-1.391,0 -2.52,1.129 -2.52,2.52l0,56.16c0,1.391 1.129,2.52 2.52,2.52l56.16,0c1.391,0 2.52,-1.129 2.52,-2.52l0,-56.16Z" style="fill:none;stroke:#bababa;stroke-width:1.44px;stroke-miterlimit:4;"/><path id="rect4388" d="M793.17,201.6c0,-1.391 -1.129,-2.52 -2.52,-2.52l-56.16,0c-1.391,0 -2.52,1.129 -2.52,2.52l0,56.16c0,1.391 1.129,2.52 2.52,2.52l56.16,0c1.391,0 2.52,-1.129 2.52,-2.52l0,-56.16Z" style="fill:none;stroke:#bababa;stroke-width:1.44px;stroke-miterlimit:4;"/><path id="rect4390" d="M860.67,201.6c0,-1.391 -1.129,-2.52 -2.52,-2.52l-56.16,0c-1.391,0 -2.52,1.129 -2.52,2.52l0,56.16c0,1.391 1.129,2.52 2.52,2.52l56.16,0c1.391,0 2.52,-1.129 2.52,-2.52l0,-56.16Z" style="fill:none;stroke:#bababa;stroke-width:1.44px;stroke-miterlimit:4;"/><path id="rect4392" d="M996.271,201.6c0,-1.391 -1.127,-2.52 -2.519,-2.52l-122.471,0c-1.391,0 -2.52,1.129 -2.52,2.52l0,56.16c0,1.391 1.129,2.52 2.52,2.52l122.471,0c1.392,0 2.519,-1.129 2.519,-2.52l0,-56.16Z" style="fill:none;stroke:#bababa;stroke-width:1.36px;stroke-miterlimit:4;"/><path id="rect4394" d="M151.92,269.1c0,-1.391 -1.129,-2.52 -2.52,-2.52l-123.66,0c-1.391,0 -2.52,1.129 -2.52,2.52l0,56.16c0,1.391 1.129,2.52 2.52,2.52l123.66,0c1.391,0 2.52,-1.129 2.52,-2.52l0,-56.16Z" style="fill:none;stroke:#bababa;stroke-width:1.44px;stroke-miterlimit:4;"/><path id="rect4396" d="M219.42,269.1c0,-1.391 -1.129,-2.52 -2.52,-2.52l-56.16,0c-1.391,0 -2.52,1.129 -2.52,2.52l0,56.16c0,1.391 1.129,2.52 2.52,2.52l56.16,0c1.391,0 2.52,-1.129 2.52,-2.52l0,-56.16Z" style="fill:none;stroke:#bababa;stroke-width:1.44px;stroke-miterlimit:4;"/><path id="rect4398" d="M286.92,269.1c0,-1.391 -1.129,-2.52 -2.52,-2.52l-56.16,0c-1.391,0 -2.52,1.129 -2.52,2.52l0,56.16c0,1.391 1.129,2.52 2.52,2.52l56.16,0c1.391,0 2.52,-1.129 2.52,-2.52l0,-56.16Z" style="fill:none;stroke:#bababa;stroke-width:1.44px;stroke-miterlimit:4;"/><path id="rect4400" d="M354.42,269.1c0,-1.391 -1.129,-2.52 -2.52,-2.52l-56.16,0c-1.391,0 -2.52,1.129 -2.52,2.52l0,56.16c0,1.391 1.129,2.52 2.52,2.52l56.16,0c1.391,0 2.52,-1.129 2.52,-2.52l0,-56.16Z" style="fill:none;stroke:#bababa;stroke-width:1.44px;stroke-miterlimit:4;"/><path id="rect4402" d="M421.92,269.1c0,-1.391 -1.129,-2.52 -2.52,-2.52l-56.16,0c-1.391,0 -2.52,1.129 -2.52,2.52l0,56.16c0,1.391 1.129,2.52 2.52,2.52l56.16,0c1.391,0 2.52,-1.129 2.52,-2.52l0,-56.16Z" style="fill:none;stroke:#bababa;stroke-width:1.44px;stroke-miterlimit:4;"/><path id="rect4404" d="M489.42,269.1c0,-1.391 -1.129,-2.52 -2.52,-2.52l-56.16,0c-1.391,0 -2.52,1.129 -2.52,2.52l0,56.16c0,1.391 1.129,2.52 2.52,2.52l56.16,0c1.391,0 2.52,-1.129 2.52,-2.52l0,-56.16Z" style="fill:none;stroke:#bababa;stroke-width:1.44px;stroke-miterlimit:4;"/><path id="rect4406" d="M556.92,269.1c0,-1.391 -1.129,-2.52 -2.52,-2.52l-56.16,0c-1.391,0 -2.52,1.129 -2.52,2.52l0,56.16c0,1.391 1.129,2.52 2.52,2.52l56.16,0c1.391,0 2.52,-1.129 2.52,-2.52l0,-56.16Z" style="fill:none;stroke:#bababa;stroke-width:1.44px;stroke-miterlimit:4;"/><path id="rect4408" d="M624.42,269.1c0,-1.391 -1.129,-2.52 -2.52,-2.52l-56.16,0c-1.391,0 -2.52,1.129 -2.52,2.52l0,56.16c0,1.391 1.129,2.52 2.52,2.52l56.16,0c1.391,0 2.52,-1.129 2.52,-2.52l0,-56.16Z" style="fill:none;stroke:#bababa;stroke-width:1.44px;stroke-miterlimit:4;"/><path id="rect4410" d="M691.92,269.1c0,-1.391 -1.129,-2.52 -2.52,-2.52l-56.16,0c-1.391,0 -2.52,1.129 -2.52,2.52l0,56.16c0,1.391 1.129,2.52 2.52,2.52l56.16,0c1.391,0 2.52,-1.129 2.52,-2.52l0,-56.16Z" style="fill:none;stroke:#bababa;stroke-width:1.44px;stroke-miterlimit:4;"/><path id="rect4412" d="M759.42,269.1c0,-1.391 -1.129,-2.52 -2.52,-2.52l-56.16,0c-1.391,0 -2.52,1.129 -2.52,2.52l0,56.16c0,1.391 1.129,2.52 2.52,2.52l56.16,0c1.391,0 2.52,-1.129 2.52,-2.52l0,-56.16Z" style="fill:none;stroke:#bababa;stroke-width:1.44px;stroke-miterlimit:4;"/><path id="rect4414" d="M826.92,269.1c0,-1.391 -1.129,-2.52 -2.52,-2.52l-56.16,0c-1.391,0 -2.52,1.129 -2.52,2.52l0,56.16c0,1.391 1.129,2.52 2.52,2.52l56.16,0c1.391,0 2.52,-1.129 2.52,-2.52l0,-56.16Z" style="fill:none;stroke:#bababa;stroke-width:1.44px;stroke-miterlimit:4;"/><path id="rect4416" d="M996.271,269.1c0,-1.391 -1.13,-2.52 -2.52,-2.52l-155.131,0c-1.391,0 -2.52,1.129 -2.52,2.52l0,56.16c0,1.391 1.129,2.52 2.52,2.52l155.131,0c1.39,0 2.52,-1.129 2.52,-2.52l0,-56.16Z" style="fill:none;stroke:#bababa;stroke-width:1.37px;stroke-miterlimit:4;"/><path id="rect4418" d="M78.617,336.61c0,-1.391 -1.129,-2.52 -2.52,-2.52l-50.357,0c-1.391,0 -2.52,1.129 -2.52,2.52l0,56.16c0,1.39 1.129,2.52 2.52,2.52l50.357,0c1.391,0 2.52,-1.13 2.52,-2.52l0,-56.16Z" style="fill:none;stroke:#bababa;stroke-width:1.37px;stroke-miterlimit:4;"/><path id="rect4420" d="M139.464,336.61c0,-1.391 -1.129,-2.52 -2.52,-2.52l-50.357,0c-1.391,0 -2.52,1.129 -2.52,2.52l0,56.16c0,1.39 1.129,2.52 2.52,2.52l50.357,0c1.391,0 2.52,-1.13 2.52,-2.52l0,-56.16Z" style="fill:none;stroke:#bababa;stroke-width:1.37px;stroke-miterlimit:4;"/><path id="rect4422" d="M200.311,336.61c0,-1.391 -1.129,-2.52 -2.52,-2.52l-50.357,0c-1.391,0 -2.52,1.129 -2.52,2.52l0,56.16c0,1.39 1.129,2.52 2.52,2.52l50.357,0c1.391,0 2.52,-1.13 2.52,-2.52l0,-56.16Z" style="fill:none;stroke:#bababa;stroke-width:1.37px;stroke-miterlimit:4;"/><path id="rect4426" d="M624.419,336.6c0,-1.391 -1.129,-2.52 -2.52,-2.52l-326.159,0c-1.391,0 -2.52,1.129 -2.52,2.52l0,56.16c0,1.39 1.129,2.52 2.52,2.52l326.159,0c1.391,0 2.52,-1.13 2.52,-2.52l0,-56.16Z" style="fill:none;stroke:#bababa;stroke-width:1.48px;stroke-miterlimit:4;"/><path id="rect4430" d="M711.031,336.6c0,-1.391 -1.129,-2.52 -2.52,-2.52l-75.27,0c-1.391,0 -2.519,1.129 -2.519,2.52l0,56.16c0,1.39 1.128,2.52 2.519,2.52l75.27,0c1.391,0 2.52,-1.13 2.52,-2.52l0,-56.16Z" style="fill:none;stroke:#bababa;stroke-width:1.68px;stroke-miterlimit:4;"/><path id="rect4432" d="M778.529,336.61c0,-1.391 -1.129,-2.52 -2.52,-2.52l-56.16,0c-1.391,0 -2.52,1.129 -2.52,2.52l0,56.16c0,1.39 1.129,2.52 2.52,2.52l56.16,0c1.391,0 2.52,-1.13 2.52,-2.52l0,-56.16Z" style="fill:none;stroke:#bababa;stroke-width:1.44px;stroke-miterlimit:4;"/><path id="rect4436" d="M929.116,336.61c0,-1.391 -1.129,-2.52 -2.52,-2.52l-56.16,0c-1.391,0 -2.52,1.129 -2.52,2.52l0,22.41c0,1.391 1.129,2.52 2.52,2.52l56.16,0c1.391,0 2.52,-1.129 2.52,-2.52l0,-22.41Z" style="fill:none;stroke:#bababa;stroke-width:1.44px;stroke-miterlimit:4;"/><path id="rect4438" d="M861.616,370.37c0,-1.39 -1.129,-2.52 -2.52,-2.52l-56.16,0c-1.391,0 -2.52,1.13 -2.52,2.52l0,22.41c0,1.39 1.129,2.52 2.52,2.52l56.16,0c1.391,0 2.52,-1.13 2.52,-2.52l0,-22.41Z" style="fill:none;stroke:#bababa;stroke-width:1.44px;stroke-miterlimit:4;"/><path id="rect4440" d="M929.116,370.37c0,-1.39 -1.129,-2.52 -2.52,-2.52l-56.16,0c-1.391,0 -2.52,1.13 -2.52,2.52l0,22.41c0,1.39 1.129,2.52 2.52,2.52l56.16,0c1.391,0 2.52,-1.13 2.52,-2.52l0,-22.41Z" style="fill:none;stroke:#bababa;stroke-width:1.44px;stroke-miterlimit:4;"/><path id="rect4442" d="M996.616,370.37c0,-1.39 -1.13,-2.52 -2.52,-2.52l-56.16,0c-1.391,0 -2.52,1.13 -2.52,2.52l0,22.41c0,1.39 1.129,2.52 2.52,2.52l56.16,0c1.39,0 2.52,-1.13 2.52,-2.52l0,-22.41Z" style="fill:none;stroke:#bababa;stroke-width:1.44px;stroke-miterlimit:4;"/><path id="rect44301" d="M286.922,336.6c0,-1.391 -1.129,-2.52 -2.52,-2.52l-75.27,0c-1.391,0 -2.519,1.129 -2.519,2.52l0,56.16c0,1.39 1.128,2.52 2.519,2.52l75.27,0c1.391,0 2.52,-1.13 2.52,-2.52l0,-56.16Z" style="fill:none;stroke:#bababa;stroke-width:1.68px;stroke-miterlimit:4;"/><path id="rect59221" d="M996.27,25.74c0,-1.391 -1.129,-2.52 -2.52,-2.52l-57.877,0c-1.391,0 -2.519,1.129 -2.519,2.52l0,29.52c0,1.391 1.128,2.52 2.519,2.52l57.877,0c1.391,0 2.52,-1.129 2.52,-2.52l0,-29.52Z" style="fill:none;stroke:#bababa;stroke-width:1.59px;stroke-miterlimit:4;"/></g><g id="Key.-labels"><g id="text4944"><text x="30.496px" y="39.242px" style="font-family:'LucidaGrande-Bold', 'Lucida Grande', sans-serif;font-weight:600;font-size:12px;fill:#b3b3b3;">esc</text><text x="30.496px" y="52.442px" style="font-family:'LucidaGrande-Bold', 'Lucida Grande', sans-serif;font-weight:600;font-size:12px;fill:#696969;">escape</text></g><text id="text4952" x="100.523px" y="39.242px" style="font-family:'LucidaGrande-Bold', 'Lucida Grande', sans-serif;font-weight:600;font-size:12px;fill:#b3b3b3;">F1</text><text id="text4957" x="170.55px" y="39.242px" style="font-family:'LucidaGrande-Bold', 'Lucida Grande', sans-serif;font-weight:600;font-size:12px;fill:#b3b3b3;">F2</text><text id="text4961" x="240.577px" y="39.242px" style="font-family:'LucidaGrande-Bold', 'Lucida Grande', sans-serif;font-weight:600;font-size:12px;fill:#b3b3b3;">F3</text><text id="text4965" x="310.604px" y="39.242px" style="font-family:'LucidaGrande-Bold', 'Lucida Grande', sans-serif;font-weight:600;font-size:12px;fill:#b3b3b3;">F4</text><text id="text4969" x="380.631px" y="39.242px" style="font-family:'LucidaGrande-Bold', 'Lucida Grande', sans-serif;font-weight:600;font-size:12px;fill:#b3b3b3;">F5</text><text id="text4973" x="450.658px" y="39.242px" style="font-family:'LucidaGrande-Bold', 'Lucida Grande', sans-serif;font-weight:600;font-size:12px;fill:#b3b3b3;">F6</text><text id="text4977" x="520.685px" y="39.242px" style="font-family:'LucidaGrande-Bold', 'Lucida Grande', sans-serif;font-weight:600;font-size:12px;fill:#b3b3b3;">F7</text><text id="text4981" x="590.712px" y="39.242px" style="font-family:'LucidaGrande-Bold', 'Lucida Grande', sans-serif;font-weight:600;font-size:12px;fill:#b3b3b3;">F8</text><text id="text4985" x="660.738px" y="39.242px" style="font-family:'LucidaGrande-Bold', 'Lucida Grande', sans-serif;font-weight:600;font-size:12px;fill:#b3b3b3;">F9</text><text id="text4989" x="730.765px" y="39.242px" style="font-family:'LucidaGrande-Bold', 'Lucida Grande', sans-serif;font-weight:600;font-size:12px;fill:#b3b3b3;">F10</text><text id="text4993" x="800.792px" y="39.242px" style="font-family:'LucidaGrande-Bold', 'Lucida Grande', sans-serif;font-weight:600;font-size:12px;fill:#b3b3b3;">F11</text><text id="text4997" x="870.819px" y="39.242px" style="font-family:'LucidaGrande-Bold', 'Lucida Grande', sans-serif;font-weight:600;font-size:12px;fill:#b3b3b3;">F12</text><g id="text5025"><text x="30.373px" y="82.918px" style="font-family:'LucidaGrande-Bold', 'Lucida Grande', sans-serif;font-weight:600;font-size:12px;fill:#696969;">`</text><text x="30.373px" y="99.418px" style="font-family:'LucidaGrande-Bold', 'Lucida Grande', sans-serif;font-weight:600;font-size:12px;fill:#696969;">~</text></g><g id="text4269"><text x="80.259px" y="82.901px" style="font-family:'LucidaGrande-Bold', 'Lucida Grande', sans-serif;font-weight:600;font-size:12px;fill:#696969;">!</text><text x="80.259px" y="99.401px" style="font-family:'LucidaGrande-Bold', 'Lucida Grande', sans-serif;font-weight:600;font-size:12px;fill:#696969;">bang</text></g><g id="text4275"><text x="147.757px" y="82.901px" style="font-family:'LucidaGrande-Bold', 'Lucida Grande', sans-serif;font-weight:600;font-size:12px;fill:#696969;">@</text><text x="147.757px" y="99.401px" style="font-family:'LucidaGrande-Bold', 'Lucida Grande', sans-serif;font-weight:600;font-size:12px;fill:#696969;">at sign</text></g><g id="text4281"><text x="215.256px" y="82.901px" style="font-family:'LucidaGrande-Bold', 'Lucida Grande', sans-serif;font-weight:600;font-size:12px;fill:#696969;">#</text><text x="215.256px" y="99.401px" style="font-family:'LucidaGrande-Bold', 'Lucida Grande', sans-serif;font-weight:600;font-size:12px;fill:#696969;">pound</text></g><g id="text4287"><text x="282.754px" y="82.901px" style="font-family:'LucidaGrande-Bold', 'Lucida Grande', sans-serif;font-weight:600;font-size:12px;fill:#696969;">$</text><text x="282.754px" y="99.401px" style="font-family:'LucidaGrande-Bold', 'Lucida Grande', sans-serif;font-weight:600;font-size:12px;fill:#696969;">dollar</text></g><g id="text4293"><text x="350.253px" y="82.901px" style="font-family:'LucidaGrande-Bold', 'Lucida Grande', sans-serif;font-weight:600;font-size:12px;fill:#696969;">%</text><text x="350.253px" y="99.401px" style="font-family:'LucidaGrande-Bold', 'Lucida Grande', sans-serif;font-weight:600;font-size:12px;fill:#696969;">percent</text></g><g id="text4300"><text x="417.751px" y="82.901px" style="font-family:'LucidaGrande-Bold', 'Lucida Grande', sans-serif;font-weight:600;font-size:12px;fill:#696969;">^</text><text x="417.751px" y="99.401px" style="font-family:'LucidaGrande-Bold', 'Lucida Grande', sans-serif;font-weight:600;font-size:12px;fill:#696969;">caret</text></g><g id="text4306"><text x="483.276px" y="83.077px" style="font-family:'LucidaGrande-Bold', 'Lucida Grande', sans-serif;font-weight:600;font-size:11.888px;fill:#696969;">&amp;</text><text x="483.356px" y="98.937px" style="font-family:'LucidaGrande-Bold', 'Lucida Grande', sans-serif;font-weight:600;font-size:9.222px;fill:#696969;">ampersand</text></g><g id="text4312"><text x="552.748px" y="82.901px" style="font-family:'LucidaGrande-Bold', 'Lucida Grande', sans-serif;font-weight:600;font-size:12px;fill:#696969;">*</text><text x="552.748px" y="99.401px" style="font-family:'LucidaGrande-Bold', 'Lucida Grande', sans-serif;font-weight:600;font-size:12px;fill:#696969;">star</text></g><text x="662.982px" y="81.562px" style="font-family:'LucidaGrande-Bold', 'Lucida Grande', sans-serif;font-weight:600;font-size:12px;fill:#b3b3b3;">9</text><text x="729.85px" y="81.562px" style="font-family:'LucidaGrande-Bold', 'Lucida Grande', sans-serif;font-weight:600;font-size:12px;fill:#b3b3b3;">0</text><g id="text4318"><text x="620.247px" y="82.901px" style="font-family:'LucidaGrande-Bold', 'Lucida Grande', sans-serif;font-weight:600;font-size:12px;fill:#696969;">(</text><text x="620.247px" y="99.401px" style="font-family:'LucidaGrande-Bold', 'Lucida Grande', sans-serif;font-weight:600;font-size:12px;fill:#696969;">paren</text></g><g id="text4324"><text x="687.745px" y="82.901px" style="font-family:'LucidaGrande-Bold', 'Lucida Grande', sans-serif;font-weight:600;font-size:12px;fill:#696969;">)</text><text x="687.745px" y="99.401px" style="font-family:'LucidaGrande-Bold', 'Lucida Grande', sans-serif;font-weight:600;font-size:12px;fill:#696969;">rparen</text></g><g id="text4331"><g><text x="752.244px" y="82.901px" style="font-family:'LucidaGrande-Bold', 'Lucida Grande', sans-serif;font-weight:600;font-size:10px;fill:#696969;">-</text><text x="760.227px" y="82.901px" style="font-family:'LucidaGrande-Bold', 'Lucida Grande', sans-serif;font-weight:600;font-size:10px;fill:#696969;">minus</text></g><text x="752.244px" y="93.513px" style="font-family:'LucidaGrande-Bold', 'Lucida Grande', sans-serif;font-weight:600;font-size:9.169px;fill:#696969;">_<tspan x="756.391px 759.125px 764.62px 769.917px 777.073px 782.52px 787.21px 791.624px 796.921px 800.691px " y="93.513px 93.513px 93.513px 93.513px 93.513px 93.513px 93.513px 93.513px 93.513px 93.513px "> downscore</tspan></text></g><g id="text4337"><text x="819.742px" y="82.901px" style="font-family:'LucidaGrande-Bold', 'Lucida Grande', sans-serif;font-weight:600;font-size:10px;fill:#696969;">= equals</text><text x="819.742px" y="93.901px" style="font-family:'LucidaGrande-Bold', 'Lucida Grande', sans-serif;font-weight:600;font-size:10px;fill:#696969;">+ plus</text></g><g id="text4343"><text x="890.241px" y="82.901px" style="font-family:'LucidaGrande-Bold', 'Lucida Grande', sans-serif;font-weight:600;font-size:12px;fill:#b3b3b3;">delete</text><text x="890.241px" y="99.401px" style="font-family:'LucidaGrande-Bold', 'Lucida Grande', sans-serif;font-weight:600;font-size:12px;fill:#696969;">delete</text></g><g id="text4349"><text x="30.4px" y="150.4px" style="font-family:'LucidaGrande-Bold', 'Lucida Grande', sans-serif;font-weight:600;font-size:12px;fill:#b3b3b3;">tab</text><text x="30.4px" y="166.9px" style="font-family:'LucidaGrande-Bold', 'Lucida Grande', sans-serif;font-weight:600;font-size:12px;fill:#686868;">tab</text></g><g id="text4355"><text x="114.998px" y="150.4px" style="font-family:'LucidaGrande-Bold', 'Lucida Grande', sans-serif;font-weight:600;font-size:12px;fill:#696969;">Q</text><text x="114.998px" y="162.4px" style="font-family:'LucidaGrande-Bold', 'Lucida Grande', sans-serif;font-weight:600;font-size:12px;fill:#696969;">quench</text></g><g id="text4361"><text x="182.496px" y="150.4px" style="font-family:'LucidaGrande-Bold', 'Lucida Grande', sans-serif;font-weight:600;font-size:12px;fill:#696969;">W</text><text x="182.496px" y="162.4px" style="font-family:'LucidaGrande-Bold', 'Lucida Grande', sans-serif;font-weight:600;font-size:12px;fill:#696969;">whale</text></g><g id="text4367"><text x="249.995px" y="150.4px" style="font-family:'LucidaGrande-Bold', 'Lucida Grande', sans-serif;font-weight:600;font-size:12px;fill:#696969;">E</text><text x="249.995px" y="162.4px" style="font-family:'LucidaGrande-Bold', 'Lucida Grande', sans-serif;font-weight:600;font-size:12px;fill:#696969;">each</text></g><g id="text4373"><text x="317.493px" y="150.4px" style="font-family:'LucidaGrande-Bold', 'Lucida Grande', sans-serif;font-weight:600;font-size:12px;fill:#696969;">R</text><text x="317.493px" y="162.4px" style="font-family:'LucidaGrande-Bold', 'Lucida Grande', sans-serif;font-weight:600;font-size:12px;fill:#696969;">red</text></g><g id="text4379"><text x="384.992px" y="150.4px" style="font-family:'LucidaGrande-Bold', 'Lucida Grande', sans-serif;font-weight:600;font-size:12px;fill:#696969;">T</text><text x="384.992px" y="162.4px" style="font-family:'LucidaGrande-Bold', 'Lucida Grande', sans-serif;font-weight:600;font-size:12px;fill:#696969;">trap</text></g><g id="text4385"><text x="452.49px" y="150.4px" style="font-family:'LucidaGrande-Bold', 'Lucida Grande', sans-serif;font-weight:600;font-size:12px;fill:#696969;">Y</text><text x="452.49px" y="162.4px" style="font-family:'LucidaGrande-Bold', 'Lucida Grande', sans-serif;font-weight:600;font-size:12px;fill:#696969;">yank</text></g><g id="text4391"><text x="519.989px" y="150.4px" style="font-family:'LucidaGrande-Bold', 'Lucida Grande', sans-serif;font-weight:600;font-size:12px;fill:#696969;">U</text><text x="519.989px" y="162.4px" style="font-family:'LucidaGrande-Bold', 'Lucida Grande', sans-serif;font-weight:600;font-size:12px;fill:#696969;">urge</text></g><g id="text4397"><text x="587.487px" y="150.4px" style="font-family:'LucidaGrande-Bold', 'Lucida Grande', sans-serif;font-weight:600;font-size:12px;fill:#696969;">I</text><text x="587.487px" y="162.4px" style="font-family:'LucidaGrande-Bold', 'Lucida Grande', sans-serif;font-weight:600;font-size:12px;fill:#696969;">sit</text></g><g id="text4403"><text x="654.986px" y="150.4px" style="font-family:'LucidaGrande-Bold', 'Lucida Grande', sans-serif;font-weight:600;font-size:12px;fill:#696969;">O</text><text x="654.986px" y="162.4px" style="font-family:'LucidaGrande-Bold', 'Lucida Grande', sans-serif;font-weight:600;font-size:12px;fill:#696969;">odd</text></g><g id="text4409"><text x="722.485px" y="150.4px" style="font-family:'LucidaGrande-Bold', 'Lucida Grande', sans-serif;font-weight:600;font-size:12px;fill:#696969;">P</text><text x="722.485px" y="162.4px" style="font-family:'LucidaGrande-Bold', 'Lucida Grande', sans-serif;font-weight:600;font-size:12px;fill:#696969;">pit</text></g><g id="text4415"><text x="786.983px" y="150.4px" style="font-family:'LucidaGrande-Bold', 'Lucida Grande', sans-serif;font-weight:600;font-size:10px;fill:#696969;">[ square</text><text x="786.983px" y="161.4px" style="font-family:'LucidaGrande-Bold', 'Lucida Grande', sans-serif;font-weight:600;font-size:10px;fill:#696969;">{ brace</text></g><g id="text4421"><text x="854.482px" y="150.4px" style="font-family:'LucidaGrande-Bold', 'Lucida Grande', sans-serif;font-weight:600;font-size:10px;fill:#696969;">] rsquare</text><text x="854.482px" y="161.4px" style="font-family:'LucidaGrande-Bold', 'Lucida Grande', sans-serif;font-weight:600;font-size:10px;fill:#696969;">} rbrace</text></g><g id="text4427"><text x="924.98px" y="150.4px" style="font-family:'LucidaGrande-Bold', 'Lucida Grande', sans-serif;font-weight:600;font-size:10px;fill:#696969;">\ backslash</text><g><text x="924.98px" y="163.6px" style="font-family:'LucidaGrande-Bold', 'Lucida Grande', sans-serif;font-weight:600;font-size:10px;fill:#696969;">|</text><text x="933.929px" y="163.6px" style="font-family:'LucidaGrande-Bold', 'Lucida Grande', sans-serif;font-weight:600;font-size:10px;fill:#696969;">pipe</text></g></g><g id="text4439"><text x="131.647px" y="217.899px" style="font-family:'LucidaGrande-Bold', 'Lucida Grande', sans-serif;font-weight:600;font-size:12px;fill:#696969;">A</text><text x="131.647px" y="229.899px" style="font-family:'LucidaGrande-Bold', 'Lucida Grande', sans-serif;font-weight:600;font-size:12px;fill:#696969;">air</text></g><g id="text4445"><text x="199.146px" y="217.899px" style="font-family:'LucidaGrande-Bold', 'Lucida Grande', sans-serif;font-weight:600;font-size:12px;fill:#696969;">S</text><text x="199.146px" y="229.899px" style="font-family:'LucidaGrande-Bold', 'Lucida Grande', sans-serif;font-weight:600;font-size:12px;fill:#696969;">sun</text></g><g id="text4451"><text x="266.644px" y="217.899px" style="font-family:'LucidaGrande-Bold', 'Lucida Grande', sans-serif;font-weight:600;font-size:12px;fill:#696969;">D</text><text x="266.644px" y="229.899px" style="font-family:'LucidaGrande-Bold', 'Lucida Grande', sans-serif;font-weight:600;font-size:12px;fill:#696969;">drum</text></g><g id="text4457"><text x="334.143px" y="217.899px" style="font-family:'LucidaGrande-Bold', 'Lucida Grande', sans-serif;font-weight:600;font-size:12px;fill:#696969;">F</text><text x="334.143px" y="229.899px" style="font-family:'LucidaGrande-Bold', 'Lucida Grande', sans-serif;font-weight:600;font-size:12px;fill:#696969;">fine</text></g><g id="text4463"><text x="401.641px" y="217.899px" style="font-family:'LucidaGrande-Bold', 'Lucida Grande', sans-serif;font-weight:600;font-size:12px;fill:#696969;">G</text><text x="401.641px" y="229.899px" style="font-family:'LucidaGrande-Bold', 'Lucida Grande', sans-serif;font-weight:600;font-size:12px;fill:#696969;">gone</text></g><g id="text4469"><text x="469.14px" y="217.899px" style="font-family:'LucidaGrande-Bold', 'Lucida Grande', sans-serif;font-weight:600;font-size:12px;fill:#696969;">H</text><text x="469.14px" y="229.899px" style="font-family:'LucidaGrande-Bold', 'Lucida Grande', sans-serif;font-weight:600;font-size:12px;fill:#696969;">harm</text></g><g id="text4475"><text x="536.639px" y="217.899px" style="font-family:'LucidaGrande-Bold', 'Lucida Grande', sans-serif;font-weight:600;font-size:12px;fill:#696969;">J</text><text x="536.639px" y="229.899px" style="font-family:'LucidaGrande-Bold', 'Lucida Grande', sans-serif;font-weight:600;font-size:12px;fill:#696969;">jury</text></g><g id="text4481"><text x="604.137px" y="217.899px" style="font-family:'LucidaGrande-Bold', 'Lucida Grande', sans-serif;font-weight:600;font-size:12px;fill:#696969;">K</text><text x="604.137px" y="229.899px" style="font-family:'LucidaGrande-Bold', 'Lucida Grande', sans-serif;font-weight:600;font-size:12px;fill:#696969;">crunch</text></g><g id="text4487"><text x="671.636px" y="217.899px" style="font-family:'LucidaGrande-Bold', 'Lucida Grande', sans-serif;font-weight:600;font-size:12px;fill:#696969;">L</text><text x="671.636px" y="229.899px" style="font-family:'LucidaGrande-Bold', 'Lucida Grande', sans-serif;font-weight:600;font-size:12px;fill:#696969;">look</text></g><g id="text4493"><text x="736.134px" y="217.899px" style="font-family:'LucidaGrande-Bold', 'Lucida Grande', sans-serif;font-weight:600;font-size:10px;fill:#696969;">; semi</text><text x="736.134px" y="231.099px" style="font-family:'LucidaGrande-Bold', 'Lucida Grande', sans-serif;font-weight:600;font-size:10px;fill:#696969;">: colon</text></g><g id="text4499"><text x="803.633px" y="217.899px" style="font-family:'LucidaGrande-Bold', 'Lucida Grande', sans-serif;font-weight:600;font-size:10px;fill:#696969;">&apos; quote</text><g><text x="803.633px" y="228.899px" style="font-family:'LucidaGrande-Bold', 'Lucida Grande', sans-serif;font-weight:600;font-size:10px;fill:#696969;">&quot;</text><text x="809.645px" y="228.899px" style="font-family:'LucidaGrande-Bold', 'Lucida Grande', sans-serif;font-weight:600;font-size:10px;fill:#696969;">dubquote</text></g></g><g id="text4505"><text x="874.131px" y="217.899px" style="font-family:'LucidaGrande-Bold', 'Lucida Grande', sans-serif;font-weight:600;font-size:12px;fill:#b3b3b3;">enter</text><text x="874.131px" y="234.399px" style="font-family:'LucidaGrande-Bold', 'Lucida Grande', sans-serif;font-weight:600;font-size:12px;fill:#6a6a6a;">enter</text></g><g id="text4517"><text x="165.397px" y="285.398px" style="font-family:'LucidaGrande-Bold', 'Lucida Grande', sans-serif;font-weight:600;font-size:12px;fill:#696969;">Z</text><text x="165.397px" y="297.398px" style="font-family:'LucidaGrande-Bold', 'Lucida Grande', sans-serif;font-weight:600;font-size:12px;fill:#696969;">zip</text></g><g id="text4523"><text x="232.895px" y="285.398px" style="font-family:'LucidaGrande-Bold', 'Lucida Grande', sans-serif;font-weight:600;font-size:12px;fill:#696969;">X</text><text x="232.895px" y="297.398px" style="font-family:'LucidaGrande-Bold', 'Lucida Grande', sans-serif;font-weight:600;font-size:12px;fill:#696969;">plex</text></g><g id="text4529"><text x="300.394px" y="285.398px" style="font-family:'LucidaGrande-Bold', 'Lucida Grande', sans-serif;font-weight:600;font-size:12px;fill:#696969;">C</text><text x="300.394px" y="297.398px" style="font-family:'LucidaGrande-Bold', 'Lucida Grande', sans-serif;font-weight:600;font-size:12px;fill:#696969;">cap</text></g><g id="text4535"><text x="367.892px" y="285.398px" style="font-family:'LucidaGrande-Bold', 'Lucida Grande', sans-serif;font-weight:600;font-size:12px;fill:#696969;">V</text><text x="367.892px" y="297.398px" style="font-family:'LucidaGrande-Bold', 'Lucida Grande', sans-serif;font-weight:600;font-size:12px;fill:#696969;">vest</text></g><g id="text4541"><text x="435.391px" y="285.398px" style="font-family:'LucidaGrande-Bold', 'Lucida Grande', sans-serif;font-weight:600;font-size:12px;fill:#696969;">B</text><text x="435.391px" y="297.398px" style="font-family:'LucidaGrande-Bold', 'Lucida Grande', sans-serif;font-weight:600;font-size:12px;fill:#696969;">bat</text></g><g id="text4547"><text x="502.889px" y="285.398px" style="font-family:'LucidaGrande-Bold', 'Lucida Grande', sans-serif;font-weight:600;font-size:12px;fill:#696969;">N</text><text x="502.889px" y="297.398px" style="font-family:'LucidaGrande-Bold', 'Lucida Grande', sans-serif;font-weight:600;font-size:12px;fill:#696969;">near</text></g><g id="text4553"><text x="570.388px" y="285.398px" style="font-family:'LucidaGrande-Bold', 'Lucida Grande', sans-serif;font-weight:600;font-size:12px;fill:#696969;">M</text><text x="570.388px" y="297.398px" style="font-family:'LucidaGrande-Bold', 'Lucida Grande', sans-serif;font-weight:600;font-size:12px;fill:#696969;">made</text></g><g id="text4559"><g><text x="634.886px" y="285.398px" style="font-family:'LucidaGrande-Bold', 'Lucida Grande', sans-serif;font-weight:600;font-size:10px;fill:#696969;">,</text><text x="646.153px" y="285.398px" style="font-family:'LucidaGrande-Bold', 'Lucida Grande', sans-serif;font-weight:600;font-size:10px;fill:#696969;">comma</text></g><text x="634.886px" y="298.598px" style="font-family:'LucidaGrande-Bold', 'Lucida Grande', sans-serif;font-weight:600;font-size:10px;fill:#696969;">&lt; angle</text></g><g id="text4565"><g><text x="702.385px" y="285.398px" style="font-family:'LucidaGrande-Bold', 'Lucida Grande', sans-serif;font-weight:600;font-size:10px;fill:#696969;">.</text><text x="713.052px" y="285.398px" style="font-family:'LucidaGrande-Bold', 'Lucida Grande', sans-serif;font-weight:600;font-size:10px;fill:#696969;">dot</text></g><text x="702.385px" y="298.598px" style="font-family:'LucidaGrande-Bold', 'Lucida Grande', sans-serif;font-weight:600;font-size:10px;fill:#696969;">&gt; rangle</text></g><g id="text4571"><text x="769.883px" y="285.398px" style="font-family:'LucidaGrande-Bold', 'Lucida Grande', sans-serif;font-weight:600;font-size:10px;fill:#696969;">/ slash</text><g><text x="769.883px" y="298.598px" style="font-family:'LucidaGrande-Bold', 'Lucida Grande', sans-serif;font-weight:600;font-size:10px;fill:#696969;">?</text><text x="778.55px" y="298.598px" style="font-family:'LucidaGrande-Bold', 'Lucida Grande', sans-serif;font-weight:600;font-size:10px;fill:#696969;">question</text></g></g><text id="text4637" x="874.439px" y="351.859px" style="font-family:'LucidaGrande-Bold', 'Lucida Grande', sans-serif;font-weight:600;font-size:12px;fill:#696969;">↑</text><text id="text4647" x="806.939px" y="386.162px" style="font-family:'LucidaGrande-Bold', 'Lucida Grande', sans-serif;font-weight:600;font-size:12px;fill:#696969;">←</text><text id="text4651" x="874.439px" y="385.609px" style="font-family:'LucidaGrande-Bold', 'Lucida Grande', sans-serif;font-weight:600;font-size:12px;fill:#696969;">↓</text><text id="text4655" x="941.939px" y="385.609px" style="font-family:'LucidaGrande-Bold', 'Lucida Grande', sans-serif;font-weight:600;font-size:12px;fill:#696969;">→</text><text x="122.783px" y="81.562px" style="font-family:'LucidaGrande-Bold', 'Lucida Grande', sans-serif;font-weight:600;font-size:12px;fill:#b3b3b3;">1</text><text x="190.615px" y="81.562px" style="font-family:'LucidaGrande-Bold', 'Lucida Grande', sans-serif;font-weight:600;font-size:12px;fill:#b3b3b3;">2</text><text x="258.068px" y="81.562px" style="font-family:'LucidaGrande-Bold', 'Lucida Grande', sans-serif;font-weight:600;font-size:12px;fill:#b3b3b3;">3</text><text x="326.109px" y="81.562px" style="font-family:'LucidaGrande-Bold', 'Lucida Grande', sans-serif;font-weight:600;font-size:12px;fill:#b3b3b3;">4</text><text x="393.609px" y="81.562px" style="font-family:'LucidaGrande-Bold', 'Lucida Grande', sans-serif;font-weight:600;font-size:12px;fill:#b3b3b3;">5</text><text x="460.584px" y="81.562px" style="font-family:'LucidaGrande-Bold', 'Lucida Grande', sans-serif;font-weight:600;font-size:12px;fill:#b3b3b3;">6</text><text x="527.982px" y="81.562px" style="font-family:'LucidaGrande-Bold', 'Lucida Grande', sans-serif;font-weight:600;font-size:12px;fill:#b3b3b3;">7</text><text x="595.482px" y="81.562px" style="font-family:'LucidaGrande-Bold', 'Lucida Grande', sans-serif;font-weight:600;font-size:12px;fill:#b3b3b3;">8</text></g></svg>
